<svg width="50" height="50" viewBox="0 0 50 50" fill="none" xmlns="http://www.w3.org/2000/svg">
<circle cx="25" cy="25" r="25" fill="#FAC99B"/>
<path d="M25.5 37C18.6055 37 13 31.3977 13 24.5049C13 17.6023 18.6055 12 25.5 12C32.3945 12 38 17.6023 38 24.4951C38 31.388 32.3945 37 25.5 37ZM36.0371 26.2061C35.6758 26.0888 32.7363 25.2186 29.3867 25.7466C30.7832 29.5792 31.3496 32.7079 31.457 33.3531C33.8594 31.7399 35.5684 29.1783 36.0371 26.2061ZM29.6699 34.3406C29.5137 33.402 28.8887 30.1365 27.3945 26.2452C27.375 26.255 27.3457 26.2648 27.3262 26.2648C21.3008 28.3668 19.1426 32.5417 18.9473 32.9327C20.7539 34.3406 23.0293 35.1815 25.5 35.1815C26.9746 35.1912 28.3906 34.8881 29.6699 34.3406ZM17.5703 31.6519C17.8145 31.2413 20.7441 26.3919 26.252 24.6027C26.3887 24.5538 26.5352 24.5147 26.6719 24.4756C26.4082 23.8694 26.1152 23.2632 25.8027 22.6668C20.4707 24.2605 15.2949 24.192 14.8262 24.1822C14.8262 24.2898 14.8164 24.3973 14.8164 24.5049C14.8262 27.2522 15.8613 29.7552 17.5703 31.6519ZM15.0508 22.3246C15.5293 22.3344 19.9238 22.3539 24.9238 21.0242C23.1562 17.876 21.2422 15.2362 20.9688 14.8549C17.9707 16.2628 15.7441 19.0199 15.0508 22.3246ZM23 14.1314C23.293 14.5225 25.2363 17.1623 26.9844 20.379C30.7832 18.9515 32.3848 16.8005 32.5801 16.5268C30.6953 14.8549 28.2148 13.8381 25.5 13.8381C24.6406 13.8381 23.8008 13.9456 23 14.1314ZM33.7617 17.7587C33.5371 18.0618 31.75 20.3594 27.8047 21.9726C28.0488 22.481 28.293 22.9992 28.5176 23.5174C28.5957 23.7032 28.6738 23.8889 28.752 24.0649C32.3066 23.6152 35.832 24.3387 36.1836 24.4071C36.1543 21.8944 35.2559 19.5772 33.7617 17.7587Z" fill="#364858"/>
</svg>
