<svg width="50" height="50" viewBox="0 0 50 50" fill="none" xmlns="http://www.w3.org/2000/svg">
<circle cx="25" cy="25" r="25" fill="#FAC99B"/>
<path d="M38 25.7772C38 24.7494 37.9149 23.9994 37.7308 23.2217H25.7551V27.8605H32.7846C32.6429 29.0133 31.8776 30.7494 30.1769 31.916L30.153 32.0713L33.9395 34.9459L34.2018 34.9716C36.6111 32.791 38 29.5827 38 25.7772Z" fill="#364858"/>
<path d="M25.7549 38.0003C29.1988 38.0003 32.0899 36.8892 34.2016 34.9726L30.1767 31.917C29.0996 32.6531 27.654 33.167 25.7549 33.167C22.3819 33.167 19.5192 30.9865 18.4987 27.9727L18.3491 27.9851L14.4118 30.9712L14.3604 31.1115C16.4578 35.1947 20.7662 38.0003 25.7549 38.0003Z" fill="#364858"/>
<path d="M18.4988 27.9723C18.2295 27.1945 18.0737 26.3611 18.0737 25.5C18.0737 24.6389 18.2295 23.8056 18.4846 23.0278L18.4775 22.8622L14.4909 19.8281L14.3605 19.8889C13.496 21.5834 13 23.4862 13 25.5C13 27.5139 13.496 29.4166 14.3605 31.1111L18.4988 27.9723Z" fill="#364858"/>
<path d="M25.7552 17.8333C28.1503 17.8333 29.7659 18.8471 30.6871 19.6944L34.2869 16.25C32.0761 14.2361 29.199 13 25.7552 13C20.7665 13 16.4581 15.8055 14.3606 19.8888L18.4847 23.0277C19.5194 20.0138 22.3822 17.8333 25.7552 17.8333Z" fill="#364858"/>
</svg>
