<svg width="50" height="50" viewBox="0 0 50 50" fill="none" xmlns="http://www.w3.org/2000/svg">
<circle cx="25" cy="25" r="25" fill="#FAC99B"/>
<path d="M25.5 14.2523C28.8376 14.2523 29.2329 14.265 30.551 14.3251C31.7697 14.3808 32.4316 14.5844 32.8722 14.7556C33.4556 14.9823 33.872 15.2532 34.3094 15.6906C34.7469 16.128 35.0177 16.5444 35.2444 17.1278C35.4156 17.5684 35.6192 18.2303 35.6749 19.4489C35.735 20.7671 35.7477 21.1624 35.7477 24.5C35.7477 27.8377 35.735 28.233 35.6749 29.5511C35.6192 30.7698 35.4156 31.4316 35.2444 31.8722C35.0177 32.4556 34.7468 32.8721 34.3094 33.3095C33.872 33.7469 33.4556 34.0178 32.8722 34.2444C32.4316 34.4156 31.7697 34.6193 30.551 34.6749C29.2331 34.7351 28.8378 34.7478 25.5 34.7478C22.1621 34.7478 21.7668 34.7351 20.4489 34.6749C19.2302 34.6192 18.5684 34.4156 18.1278 34.2444C17.5444 34.0178 17.1279 33.7469 16.6905 33.3095C16.2531 32.872 15.9822 32.4556 15.7556 31.8722C15.5844 31.4317 15.3807 30.7698 15.3251 29.5511C15.2649 28.233 15.2522 27.8377 15.2522 24.5C15.2522 21.1624 15.2649 20.7671 15.3251 19.449C15.3808 18.2303 15.5844 17.5684 15.7556 17.1278C15.9822 16.5444 16.2531 16.128 16.6905 15.6906C17.128 15.2531 17.5444 14.9823 18.1278 14.7556C18.5683 14.5844 19.2302 14.3808 20.4489 14.3251C21.767 14.265 22.1623 14.2523 25.5 14.2523ZM25.5 12C22.1052 12 21.6795 12.0144 20.3463 12.0752C19.0157 12.1359 18.107 12.3473 17.312 12.6562C16.4899 12.9757 15.7929 13.4031 15.0979 14.098C14.403 14.793 13.9757 15.49 13.6562 16.312C13.3472 17.1071 13.1359 18.0158 13.0752 19.3463C13.0144 20.6795 13 21.1052 13 24.5C13 27.8948 13.0144 28.3205 13.0752 29.6537C13.1359 30.9843 13.3472 31.893 13.6562 32.688C13.9756 33.51 14.403 34.2071 15.0979 34.9021C15.7929 35.597 16.4899 36.0243 17.312 36.3438C18.1071 36.6528 19.0157 36.8641 20.3462 36.9248C21.6795 36.9856 22.1052 37 25.5 37C28.8948 37 29.3205 36.9856 30.6537 36.9248C31.9842 36.8641 32.8929 36.6528 33.6879 36.3438C34.51 36.0244 35.207 35.597 35.902 34.9021C36.5969 34.2071 37.0243 33.5101 37.3438 32.688C37.6527 31.8929 37.8641 30.9843 37.9248 29.6538C37.9856 28.3205 38 27.8948 38 24.5C38 21.1052 37.9856 20.6795 37.9248 19.3463C37.8641 18.0158 37.6527 17.1071 37.3438 16.3121C37.0243 15.49 36.5969 14.793 35.902 14.098C35.207 13.4031 34.51 12.9756 33.688 12.6562C32.8929 12.3473 31.9842 12.1359 30.6537 12.0752C29.3205 12.0144 28.8948 12 25.5 12ZM25.5 18.0811C21.9549 18.0811 19.0811 20.9551 19.0811 24.5C19.0811 28.0451 21.9549 30.9189 25.5 30.9189C29.045 30.9189 31.9189 28.0451 31.9189 24.5C31.9189 20.955 29.045 18.0811 25.5 18.0811ZM25.5 28.6667C23.1988 28.6667 21.3333 26.8012 21.3333 24.5C21.3333 22.1988 23.1988 20.3333 25.5 20.3333C27.8012 20.3333 29.6667 22.1988 29.6667 24.5C29.6667 26.8012 27.8012 28.6667 25.5 28.6667ZM33.6725 17.8274C33.6725 18.656 33.001 19.3274 32.1725 19.3274C31.344 19.3274 30.6725 18.656 30.6725 17.8274C30.6725 16.999 31.344 16.3274 32.1725 16.3274C33.001 16.3274 33.6725 16.999 33.6725 17.8274Z" fill="#364858"/>
</svg>
