<svg width="50" height="50" viewBox="0 0 50 50" fill="none" xmlns="http://www.w3.org/2000/svg">
<circle cx="25" cy="25" r="25" fill="#FAC99B"/>
<path d="M38 17.4051C37.0801 17.813 36.0916 18.0887 35.0541 18.2127C36.1132 17.5779 36.9264 16.5728 37.3093 15.3751C36.3025 15.9725 35.201 16.3935 34.0523 16.6197C33.1167 15.6229 31.7838 15 30.3085 15C27.4759 15 25.1793 17.2965 25.1793 20.1289C25.1793 20.531 25.2247 20.9224 25.3121 21.2979C21.0494 21.0839 17.2701 19.042 14.7403 15.9389C14.2989 16.6964 14.046 17.5775 14.046 18.5174C14.046 20.2969 14.9516 21.8667 16.3277 22.7865C15.5132 22.761 14.7166 22.541 14.0045 22.1449C14.0042 22.1664 14.0042 22.1879 14.0042 22.2095C14.0042 24.6945 15.7722 26.7676 18.1185 27.2388C17.3632 27.4442 16.5709 27.4742 15.8022 27.3267C16.4549 29.3644 18.3491 30.8472 20.5935 30.8887C18.8381 32.2643 16.6265 33.0843 14.2235 33.0843C13.8095 33.0843 13.4013 33.06 13 33.0126C15.2698 34.4679 17.9658 35.317 20.8623 35.317C30.2966 35.317 35.4555 27.5015 35.4555 20.7237C35.4555 20.5013 35.4506 20.2801 35.4406 20.0602C36.4448 19.3343 37.3114 18.4352 38 17.4051Z" fill="#364858"/>
</svg>
